{
	"asset":{
		"generator":"Khronos glTF Blender I/O v4.2.60",
		"version":"2.0"
	},
	"scene":0,
	"scenes":[
		{
			"name":"Scene",
			"nodes":[
				0
			]
		}
	],
	"nodes":[
		{
			"mesh":0,
			"name":"Plane"
		}
	],
	"materials":[
		{
			"doubleSided":true,
			"name":"Sand black",
			"normalTexture":{
				"index":0,
				"texCoord":1
			},
			"pbrMetallicRoughness":{
				"baseColorTexture":{
					"index":1,
					"texCoord":1
				},
				"metallicFactor":0,
				"metallicRoughnessTexture":{
					"index":2,
					"texCoord":1
				}
			}
		}
	],
	"meshes":[
		{
			"name":"Plane",
			"primitives":[
				{
					"attributes":{
						"POSITION":0,
						"NORMAL":1,
						"TEXCOORD_0":2,
						"TEXCOORD_1":3
					},
					"indices":4,
					"material":0
				}
			]
		}
	],
	"textures":[
		{
			"sampler":0,
			"source":0
		},
		{
			"sampler":0,
			"source":1
		},
		{
			"sampler":0,
			"source":2
		}
	],
	"images":[
		{
			"mimeType":"image/jpeg",
			"name":"sand06 height 4k",
			"uri":"textures/sand06%20height%204k.jpg"
		},
		{
			"mimeType":"image/jpeg",
			"name":"sand06 diffuse 4k",
			"uri":"textures/sand06%20diffuse%204k.jpg"
		},
		{
			"mimeType":"image/png",
			"name":"sand06 roughness 4k",
			"uri":"textures/sand06%20roughness%204k.png"
		}
	],
	"accessors":[
		{
			"bufferView":0,
			"componentType":5126,
			"count":1188,
			"max":[
				36.84845733642578,
				4.603903293609619,
				36.84845733642578
			],
			"min":[
				-36.84845733642578,
				-0.38640573620796204,
				-36.84845733642578
			],
			"type":"VEC3"
		},
		{
			"bufferView":1,
			"componentType":5126,
			"count":1188,
			"type":"VEC3"
		},
		{
			"bufferView":2,
			"componentType":5126,
			"count":1188,
			"type":"VEC2"
		},
		{
			"bufferView":3,
			"componentType":5126,
			"count":1188,
			"type":"VEC2"
		},
		{
			"bufferView":4,
			"componentType":5123,
			"count":6708,
			"type":"SCALAR"
		}
	],
	"bufferViews":[
		{
			"buffer":0,
			"byteLength":14256,
			"byteOffset":0,
			"target":34962
		},
		{
			"buffer":0,
			"byteLength":14256,
			"byteOffset":14256,
			"target":34962
		},
		{
			"buffer":0,
			"byteLength":9504,
			"byteOffset":28512,
			"target":34962
		},
		{
			"buffer":0,
			"byteLength":9504,
			"byteOffset":38016,
			"target":34962
		},
		{
			"buffer":0,
			"byteLength":13416,
			"byteOffset":47520,
			"target":34963
		}
	],
	"samplers":[
		{
			"magFilter":9729,
			"minFilter":9987
		}
	],
	"buffers":[
		{
			"byteLength":60936,
			"uri":"floor.bin"
		}
	]
}
